<?xml version="1.0" encoding="utf-8" standalone="no"?>
<!DOCTYPE svg PUBLIC "-//W3C//DTD SVG 1.1//EN"
  "http://www.w3.org/Graphics/SVG/1.1/DTD/svg11.dtd">
<svg xmlns:xlink="http://www.w3.org/1999/xlink" width="216pt" height="252pt" viewBox="0 0 216 252" xmlns="http://www.w3.org/2000/svg" version="1.1">
 <metadata>
  <rdf:RDF xmlns:dc="http://purl.org/dc/elements/1.1/" xmlns:cc="http://creativecommons.org/ns#" xmlns:rdf="http://www.w3.org/1999/02/22-rdf-syntax-ns#">
   <cc:Work>
    <dc:type rdf:resource="http://purl.org/dc/dcmitype/StillImage"/>
    <dc:date>2026-08-18T07:34:58.270873</dc:date>
    <dc:format>image/svg+xml</dc:format>
    <dc:creator>
     <cc:Agent>
      <dc:title>Matplotlib v3.10.8, https://matplotlib.org/</dc:title>
     </cc:Agent>
    </dc:creator>
   </cc:Work>
  </rdf:RDF>
 </metadata>
 <defs>
  <style type="text/css">*{stroke-linejoin: round; stroke-linecap: butt}</style>
 </defs>
 <g id="figure_1">
  <g id="patch_1">
   <path d="M 0 252 
L 216 252 
L 216 0 
L 0 0 
z
" style="fill: #ffffff"/>
  </g>
  <g id="axes_1">
   <g id="patch_2">
    <path d="M 14.316801 195.889687 
L 203.04 195.889687 
L 203.04 12.96 
L 14.316801 12.96 
z
" style="fill: #eaeaf2"/>
   </g>
   <g id="matplotlib.axis_1">
    <g id="xtick_1">
     <g id="line2d_1">
      <path d="M 21.943834 195.889687 
L 21.943834 12.96 
" clip-path="url(#pef5382b724)" style="fill: none; stroke: #ffffff; stroke-opacity: 0.5; stroke-width: 0.6; stroke-linecap: round"/>
     </g>
     <g id="text_1">
      <!-- $\mathdefault{10^{1}}$ -->
      <g style="fill: #262626" transform="translate(13.308834 216.733437) scale(0.11 -0.11)">
       <defs>
        <path id="ArialMT-31" d="M 2384 0 
L 1822 0 
L 1822 3584 
Q 1619 3391 1289 3197 
Q 959 3003 697 2906 
L 697 3450 
Q 1169 3672 1522 3987 
Q 1875 4303 2022 4600 
L 2384 4600 
L 2384 0 
z
" transform="scale(0.015625)"/>
        <path id="ArialMT-30" d="M 266 2259 
Q 266 3072 433 3567 
Q 600 4063 929 4331 
Q 1259 4600 1759 4600 
Q 2128 4600 2406 4451 
Q 2684 4303 2865 4023 
Q 3047 3744 3150 3342 
Q 3253 2941 3253 2259 
Q 3253 1453 3087 958 
Q 2922 463 2592 192 
Q 2263 -78 1759 -78 
Q 1097 -78 719 397 
Q 266 969 266 2259 
z
M 844 2259 
Q 844 1131 1108 757 
Q 1372 384 1759 384 
Q 2147 384 2411 759 
Q 2675 1134 2675 2259 
Q 2675 3391 2411 3762 
Q 2147 4134 1753 4134 
Q 1366 4134 1134 3806 
Q 844 3388 844 2259 
z
" transform="scale(0.015625)"/>
       </defs>
       <use xlink:href="#ArialMT-31" transform="translate(0 0.99375)"/>
       <use xlink:href="#ArialMT-30" transform="translate(55.615234 0.99375)"/>
       <use xlink:href="#ArialMT-31" transform="translate(112.972813 70.6875) scale(0.7)"/>
      </g>
     </g>
    </g>
    <g id="xtick_2">
     <g id="line2d_2">
      <path d="M 100.646053 195.889687 
L 100.646053 12.96 
" clip-path="url(#pef5382b724)" style="fill: none; stroke: #ffffff; stroke-opacity: 0.5; stroke-width: 0.6; stroke-linecap: round"/>
     </g>
     <g id="text_2">
      <!-- $\mathdefault{10^{2}}$ -->
      <g style="fill: #262626" transform="translate(92.011053 216.733437) scale(0.11 -0.11)">
       <defs>
        <path id="ArialMT-32" d="M 3222 541 
L 3222 0 
L 194 0 
Q 188 203 259 391 
Q 375 700 629 1000 
Q 884 1300 1366 1694 
Q 2113 2306 2375 2664 
Q 2638 3022 2638 3341 
Q 2638 3675 2398 3904 
Q 2159 4134 1775 4134 
Q 1369 4134 1125 3890 
Q 881 3647 878 3216 
L 300 3275 
Q 359 3922 746 4261 
Q 1134 4600 1788 4600 
Q 2447 4600 2831 4234 
Q 3216 3869 3216 3328 
Q 3216 3053 3103 2787 
Q 2991 2522 2730 2228 
Q 2469 1934 1863 1422 
Q 1356 997 1212 845 
Q 1069 694 975 541 
L 3222 541 
z
" transform="scale(0.015625)"/>
       </defs>
       <use xlink:href="#ArialMT-31" transform="translate(0 0.99375)"/>
       <use xlink:href="#ArialMT-30" transform="translate(55.615234 0.99375)"/>
       <use xlink:href="#ArialMT-32" transform="translate(112.972813 70.6875) scale(0.7)"/>
      </g>
     </g>
    </g>
    <g id="xtick_3">
     <g id="line2d_3">
      <path d="M 179.348271 195.889687 
L 179.348271 12.96 
" clip-path="url(#pef5382b724)" style="fill: none; stroke: #ffffff; stroke-opacity: 0.5; stroke-width: 0.6; stroke-linecap: round"/>
     </g>
     <g id="text_3">
      <!-- $\mathdefault{10^{3}}$ -->
      <g style="fill: #262626" transform="translate(170.713271 216.733437) scale(0.11 -0.11)">
       <defs>
        <path id="ArialMT-33" d="M 269 1209 
L 831 1284 
Q 928 806 1161 595 
Q 1394 384 1728 384 
Q 2125 384 2398 659 
Q 2672 934 2672 1341 
Q 2672 1728 2419 1979 
Q 2166 2231 1775 2231 
Q 1616 2231 1378 2169 
L 1441 2663 
Q 1497 2656 1531 2656 
Q 1891 2656 2178 2843 
Q 2466 3031 2466 3422 
Q 2466 3731 2256 3934 
Q 2047 4138 1716 4138 
Q 1388 4138 1169 3931 
Q 950 3725 888 3313 
L 325 3413 
Q 428 3978 793 4289 
Q 1159 4600 1703 4600 
Q 2078 4600 2393 4439 
Q 2709 4278 2876 4000 
Q 3044 3722 3044 3409 
Q 3044 3113 2884 2869 
Q 2725 2625 2413 2481 
Q 2819 2388 3044 2092 
Q 3269 1797 3269 1353 
Q 3269 753 2831 336 
Q 2394 -81 1725 -81 
Q 1122 -81 723 278 
Q 325 638 269 1209 
z
" transform="scale(0.015625)"/>
       </defs>
       <use xlink:href="#ArialMT-31" transform="translate(0 0.99375)"/>
       <use xlink:href="#ArialMT-30" transform="translate(55.615234 0.99375)"/>
       <use xlink:href="#ArialMT-33" transform="translate(112.972813 70.6875) scale(0.7)"/>
      </g>
     </g>
    </g>
    <g id="xtick_4"/>
    <g id="xtick_5"/>
    <g id="xtick_6"/>
    <g id="xtick_7"/>
    <g id="xtick_8"/>
    <g id="xtick_9"/>
    <g id="xtick_10"/>
    <g id="xtick_11"/>
    <g id="xtick_12"/>
    <g id="xtick_13"/>
    <g id="xtick_14"/>
    <g id="xtick_15"/>
    <g id="xtick_16"/>
    <g id="xtick_17"/>
    <g id="xtick_18"/>
    <g id="xtick_19"/>
    <g id="xtick_20"/>
    <g id="xtick_21"/>
    <g id="xtick_22"/>
    <g id="text_4">
     <!-- SCD Radius (m) -->
     <g style="fill: #262626" transform="translate(54.088947 233.839219) scale(0.15 -0.15)">
      <defs>
       <path id="ArialMT-53" d="M 288 1472 
L 859 1522 
Q 900 1178 1048 958 
Q 1197 738 1509 602 
Q 1822 466 2213 466 
Q 2559 466 2825 569 
Q 3091 672 3220 851 
Q 3350 1031 3350 1244 
Q 3350 1459 3225 1620 
Q 3100 1781 2813 1891 
Q 2628 1963 1997 2114 
Q 1366 2266 1113 2400 
Q 784 2572 623 2826 
Q 463 3081 463 3397 
Q 463 3744 659 4045 
Q 856 4347 1234 4503 
Q 1613 4659 2075 4659 
Q 2584 4659 2973 4495 
Q 3363 4331 3572 4012 
Q 3781 3694 3797 3291 
L 3216 3247 
Q 3169 3681 2898 3903 
Q 2628 4125 2100 4125 
Q 1550 4125 1298 3923 
Q 1047 3722 1047 3438 
Q 1047 3191 1225 3031 
Q 1400 2872 2139 2705 
Q 2878 2538 3153 2413 
Q 3553 2228 3743 1945 
Q 3934 1663 3934 1294 
Q 3934 928 3725 604 
Q 3516 281 3123 101 
Q 2731 -78 2241 -78 
Q 1619 -78 1198 103 
Q 778 284 539 648 
Q 300 1013 288 1472 
z
" transform="scale(0.015625)"/>
       <path id="ArialMT-43" d="M 3763 1606 
L 4369 1453 
Q 4178 706 3683 314 
Q 3188 -78 2472 -78 
Q 1731 -78 1267 223 
Q 803 525 561 1097 
Q 319 1669 319 2325 
Q 319 3041 592 3573 
Q 866 4106 1370 4382 
Q 1875 4659 2481 4659 
Q 3169 4659 3637 4309 
Q 4106 3959 4291 3325 
L 3694 3184 
Q 3534 3684 3231 3912 
Q 2928 4141 2469 4141 
Q 1941 4141 1586 3887 
Q 1231 3634 1087 3207 
Q 944 2781 944 2328 
Q 944 1744 1114 1308 
Q 1284 872 1643 656 
Q 2003 441 2422 441 
Q 2931 441 3284 734 
Q 3638 1028 3763 1606 
z
" transform="scale(0.015625)"/>
       <path id="ArialMT-44" d="M 494 0 
L 494 4581 
L 2072 4581 
Q 2606 4581 2888 4516 
Q 3281 4425 3559 4188 
Q 3922 3881 4101 3404 
Q 4281 2928 4281 2316 
Q 4281 1794 4159 1391 
Q 4038 988 3847 723 
Q 3656 459 3429 307 
Q 3203 156 2883 78 
Q 2563 0 2147 0 
L 494 0 
z
M 1100 541 
L 2078 541 
Q 2531 541 2789 625 
Q 3047 709 3200 863 
Q 3416 1078 3536 1442 
Q 3656 1806 3656 2325 
Q 3656 3044 3420 3430 
Q 3184 3816 2847 3947 
Q 2603 4041 2063 4041 
L 1100 4041 
L 1100 541 
z
" transform="scale(0.015625)"/>
       <path id="ArialMT-20" transform="scale(0.015625)"/>
       <path id="ArialMT-52" d="M 503 0 
L 503 4581 
L 2534 4581 
Q 3147 4581 3465 4457 
Q 3784 4334 3975 4021 
Q 4166 3709 4166 3331 
Q 4166 2844 3850 2509 
Q 3534 2175 2875 2084 
Q 3116 1969 3241 1856 
Q 3506 1613 3744 1247 
L 4541 0 
L 3778 0 
L 3172 953 
Q 2906 1366 2734 1584 
Q 2563 1803 2427 1890 
Q 2291 1978 2150 2013 
Q 2047 2034 1813 2034 
L 1109 2034 
L 1109 0 
L 503 0 
z
M 1109 2559 
L 2413 2559 
Q 2828 2559 3062 2645 
Q 3297 2731 3419 2920 
Q 3541 3109 3541 3331 
Q 3541 3656 3305 3865 
Q 3069 4075 2559 4075 
L 1109 4075 
L 1109 2559 
z
" transform="scale(0.015625)"/>
       <path id="ArialMT-61" d="M 2588 409 
Q 2275 144 1986 34 
Q 1697 -75 1366 -75 
Q 819 -75 525 192 
Q 231 459 231 875 
Q 231 1119 342 1320 
Q 453 1522 633 1644 
Q 813 1766 1038 1828 
Q 1203 1872 1538 1913 
Q 2219 1994 2541 2106 
Q 2544 2222 2544 2253 
Q 2544 2597 2384 2738 
Q 2169 2928 1744 2928 
Q 1347 2928 1158 2789 
Q 969 2650 878 2297 
L 328 2372 
Q 403 2725 575 2942 
Q 747 3159 1072 3276 
Q 1397 3394 1825 3394 
Q 2250 3394 2515 3294 
Q 2781 3194 2906 3042 
Q 3031 2891 3081 2659 
Q 3109 2516 3109 2141 
L 3109 1391 
Q 3109 606 3145 398 
Q 3181 191 3288 0 
L 2700 0 
Q 2613 175 2588 409 
z
M 2541 1666 
Q 2234 1541 1622 1453 
Q 1275 1403 1131 1340 
Q 988 1278 909 1158 
Q 831 1038 831 891 
Q 831 666 1001 516 
Q 1172 366 1500 366 
Q 1825 366 2078 508 
Q 2331 650 2450 897 
Q 2541 1088 2541 1459 
L 2541 1666 
z
" transform="scale(0.015625)"/>
       <path id="ArialMT-64" d="M 2575 0 
L 2575 419 
Q 2259 -75 1647 -75 
Q 1250 -75 917 144 
Q 584 363 401 755 
Q 219 1147 219 1656 
Q 219 2153 384 2558 
Q 550 2963 881 3178 
Q 1213 3394 1622 3394 
Q 1922 3394 2156 3267 
Q 2391 3141 2538 2938 
L 2538 4581 
L 3097 4581 
L 3097 0 
L 2575 0 
z
M 797 1656 
Q 797 1019 1065 703 
Q 1334 388 1700 388 
Q 2069 388 2326 689 
Q 2584 991 2584 1609 
Q 2584 2291 2321 2609 
Q 2059 2928 1675 2928 
Q 1300 2928 1048 2622 
Q 797 2316 797 1656 
z
" transform="scale(0.015625)"/>
       <path id="ArialMT-69" d="M 425 3934 
L 425 4581 
L 988 4581 
L 988 3934 
L 425 3934 
z
M 425 0 
L 425 3319 
L 988 3319 
L 988 0 
L 425 0 
z
" transform="scale(0.015625)"/>
       <path id="ArialMT-75" d="M 2597 0 
L 2597 488 
Q 2209 -75 1544 -75 
Q 1250 -75 995 37 
Q 741 150 617 320 
Q 494 491 444 738 
Q 409 903 409 1263 
L 409 3319 
L 972 3319 
L 972 1478 
Q 972 1038 1006 884 
Q 1059 663 1231 536 
Q 1403 409 1656 409 
Q 1909 409 2131 539 
Q 2353 669 2445 892 
Q 2538 1116 2538 1541 
L 2538 3319 
L 3100 3319 
L 3100 0 
L 2597 0 
z
" transform="scale(0.015625)"/>
       <path id="ArialMT-73" d="M 197 991 
L 753 1078 
Q 800 744 1014 566 
Q 1228 388 1613 388 
Q 2000 388 2187 545 
Q 2375 703 2375 916 
Q 2375 1106 2209 1216 
Q 2094 1291 1634 1406 
Q 1016 1563 777 1677 
Q 538 1791 414 1992 
Q 291 2194 291 2438 
Q 291 2659 392 2848 
Q 494 3038 669 3163 
Q 800 3259 1026 3326 
Q 1253 3394 1513 3394 
Q 1903 3394 2198 3281 
Q 2494 3169 2634 2976 
Q 2775 2784 2828 2463 
L 2278 2388 
Q 2241 2644 2061 2787 
Q 1881 2931 1553 2931 
Q 1166 2931 1000 2803 
Q 834 2675 834 2503 
Q 834 2394 903 2306 
Q 972 2216 1119 2156 
Q 1203 2125 1616 2013 
Q 2213 1853 2448 1751 
Q 2684 1650 2818 1456 
Q 2953 1263 2953 975 
Q 2953 694 2789 445 
Q 2625 197 2315 61 
Q 2006 -75 1616 -75 
Q 969 -75 630 194 
Q 291 463 197 991 
z
" transform="scale(0.015625)"/>
       <path id="ArialMT-28" d="M 1497 -1347 
Q 1031 -759 709 28 
Q 388 816 388 1659 
Q 388 2403 628 3084 
Q 909 3875 1497 4659 
L 1900 4659 
Q 1522 4009 1400 3731 
Q 1209 3300 1100 2831 
Q 966 2247 966 1656 
Q 966 153 1900 -1347 
L 1497 -1347 
z
" transform="scale(0.015625)"/>
       <path id="ArialMT-6d" d="M 422 0 
L 422 3319 
L 925 3319 
L 925 2853 
Q 1081 3097 1340 3245 
Q 1600 3394 1931 3394 
Q 2300 3394 2536 3241 
Q 2772 3088 2869 2813 
Q 3263 3394 3894 3394 
Q 4388 3394 4653 3120 
Q 4919 2847 4919 2278 
L 4919 0 
L 4359 0 
L 4359 2091 
Q 4359 2428 4304 2576 
Q 4250 2725 4106 2815 
Q 3963 2906 3769 2906 
Q 3419 2906 3187 2673 
Q 2956 2441 2956 1928 
L 2956 0 
L 2394 0 
L 2394 2156 
Q 2394 2531 2256 2718 
Q 2119 2906 1806 2906 
Q 1569 2906 1367 2781 
Q 1166 2656 1075 2415 
Q 984 2175 984 1722 
L 984 0 
L 422 0 
z
" transform="scale(0.015625)"/>
       <path id="ArialMT-29" d="M 791 -1347 
L 388 -1347 
Q 1322 153 1322 1656 
Q 1322 2244 1188 2822 
Q 1081 3291 891 3722 
Q 769 4003 388 4659 
L 791 4659 
Q 1378 3875 1659 3084 
Q 1900 2403 1900 1659 
Q 1900 816 1576 28 
Q 1253 -759 791 -1347 
z
" transform="scale(0.015625)"/>
      </defs>
      <use xlink:href="#ArialMT-53"/>
      <use xlink:href="#ArialMT-43" transform="translate(66.699219 0)"/>
      <use xlink:href="#ArialMT-44" transform="translate(138.916016 0)"/>
      <use xlink:href="#ArialMT-20" transform="translate(211.132812 0)"/>
      <use xlink:href="#ArialMT-52" transform="translate(238.916016 0)"/>
      <use xlink:href="#ArialMT-61" transform="translate(311.132812 0)"/>
      <use xlink:href="#ArialMT-64" transform="translate(366.748047 0)"/>
      <use xlink:href="#ArialMT-69" transform="translate(422.363281 0)"/>
      <use xlink:href="#ArialMT-75" transform="translate(444.580078 0)"/>
      <use xlink:href="#ArialMT-73" transform="translate(500.195312 0)"/>
      <use xlink:href="#ArialMT-20" transform="translate(550.195312 0)"/>
      <use xlink:href="#ArialMT-28" transform="translate(577.978516 0)"/>
      <use xlink:href="#ArialMT-6d" transform="translate(611.279297 0)"/>
      <use xlink:href="#ArialMT-29" transform="translate(694.580078 0)"/>
     </g>
    </g>
   </g>
   <g id="matplotlib.axis_2">
    <g id="ytick_1"/>
    <g id="ytick_2"/>
    <g id="ytick_3"/>
    <g id="ytick_4"/>
    <g id="ytick_5"/>
    <g id="ytick_6"/>
   </g>
   <g id="patch_3">
    <path d="M 129.661535 19.057656 
L 129.661535 37.350625 
L 157.359894 37.350625 
L 157.359894 19.057656 
L 129.661535 19.057656 
z
" clip-path="url(#pef5382b724)" style="fill: #df9c20; stroke: #494949; stroke-linejoin: miter"/>
   </g>
   <g id="line2d_4">
    <path d="M 129.661535 28.204141 
L 117.540684 28.204141 
" clip-path="url(#pef5382b724)" style="fill: none; stroke: #494949"/>
   </g>
   <g id="line2d_5">
    <path d="M 157.359894 28.204141 
L 170.757302 28.204141 
" clip-path="url(#pef5382b724)" style="fill: none; stroke: #494949"/>
   </g>
   <g id="line2d_6">
    <path d="M 117.540684 23.630898 
L 117.540684 32.777383 
" clip-path="url(#pef5382b724)" style="fill: none; stroke: #494949; stroke-linecap: round"/>
   </g>
   <g id="line2d_7">
    <path d="M 170.757302 23.630898 
L 170.757302 32.777383 
" clip-path="url(#pef5382b724)" style="fill: none; stroke: #494949; stroke-linecap: round"/>
   </g>
   <g id="line2d_8"/>
   <g id="patch_4">
    <path d="M 115.186424 49.545937 
L 115.186424 67.838906 
L 138.255674 67.838906 
L 138.255674 49.545937 
L 115.186424 49.545937 
z
" clip-path="url(#pef5382b724)" style="fill: #df9c20; stroke: #494949; stroke-linejoin: miter"/>
   </g>
   <g id="line2d_9">
    <path d="M 115.186424 58.692422 
L 93.963787 58.692422 
" clip-path="url(#pef5382b724)" style="fill: none; stroke: #494949"/>
   </g>
   <g id="line2d_10">
    <path d="M 138.255674 58.692422 
L 154.013559 58.692422 
" clip-path="url(#pef5382b724)" style="fill: none; stroke: #494949"/>
   </g>
   <g id="line2d_11">
    <path d="M 93.963787 54.11918 
L 93.963787 63.265664 
" clip-path="url(#pef5382b724)" style="fill: none; stroke: #494949; stroke-linecap: round"/>
   </g>
   <g id="line2d_12">
    <path d="M 154.013559 54.11918 
L 154.013559 63.265664 
" clip-path="url(#pef5382b724)" style="fill: none; stroke: #494949; stroke-linecap: round"/>
   </g>
   <g id="line2d_13">
    <defs>
     <path id="m158ac80b42" d="M 0 3 
C 0.795609 3 1.55874 2.683901 2.12132 2.12132 
C 2.683901 1.55874 3 0.795609 3 0 
C 3 -0.795609 2.683901 -1.55874 2.12132 -2.12132 
C 1.55874 -2.683901 0.795609 -3 0 -3 
C -0.795609 -3 -1.55874 -2.683901 -2.12132 -2.12132 
C -2.683901 -1.55874 -3 -0.795609 -3 0 
C -3 0.795609 -2.683901 1.55874 -2.12132 2.12132 
C -1.55874 2.683901 -0.795609 3 0 3 
z
" style="stroke: #494949"/>
    </defs>
    <g clip-path="url(#pef5382b724)">
     <use xlink:href="#m158ac80b42" x="160.466718" y="58.692422" style="fill-opacity: 0; stroke: #494949"/>
    </g>
   </g>
   <g id="patch_5">
    <path d="M 102.591158 80.034219 
L 102.591158 98.327187 
L 133.930801 98.327187 
L 133.930801 80.034219 
L 102.591158 80.034219 
z
" clip-path="url(#pef5382b724)" style="fill: #df9c20; stroke: #494949; stroke-linejoin: miter"/>
   </g>
   <g id="line2d_14">
    <path d="M 102.591158 89.180703 
L 85.582219 89.180703 
" clip-path="url(#pef5382b724)" style="fill: none; stroke: #494949"/>
   </g>
   <g id="line2d_15">
    <path d="M 133.930801 89.180703 
L 149.023067 89.180703 
" clip-path="url(#pef5382b724)" style="fill: none; stroke: #494949"/>
   </g>
   <g id="line2d_16">
    <path d="M 85.582219 84.607461 
L 85.582219 93.753945 
" clip-path="url(#pef5382b724)" style="fill: none; stroke: #494949; stroke-linecap: round"/>
   </g>
   <g id="line2d_17">
    <path d="M 149.023067 84.607461 
L 149.023067 93.753945 
" clip-path="url(#pef5382b724)" style="fill: none; stroke: #494949; stroke-linecap: round"/>
   </g>
   <g id="line2d_18">
    <g clip-path="url(#pef5382b724)">
     <use xlink:href="#m158ac80b42" x="158.299286" y="89.180703" style="fill-opacity: 0; stroke: #494949"/>
    </g>
   </g>
   <g id="patch_6">
    <path d="M 141.404252 110.5225 
L 141.404252 128.815469 
L 157.80363 128.815469 
L 157.80363 110.5225 
L 141.404252 110.5225 
z
" clip-path="url(#pef5382b724)" style="fill: #df9c20; stroke: #494949; stroke-linejoin: miter"/>
   </g>
   <g id="line2d_19">
    <path d="M 141.404252 119.668984 
L 128.844702 119.668984 
" clip-path="url(#pef5382b724)" style="fill: none; stroke: #494949"/>
   </g>
   <g id="line2d_20">
    <path d="M 157.80363 119.668984 
L 170.313003 119.668984 
" clip-path="url(#pef5382b724)" style="fill: none; stroke: #494949"/>
   </g>
   <g id="line2d_21">
    <path d="M 128.844702 115.095742 
L 128.844702 124.242227 
" clip-path="url(#pef5382b724)" style="fill: none; stroke: #494949; stroke-linecap: round"/>
   </g>
   <g id="line2d_22">
    <path d="M 170.313003 115.095742 
L 170.313003 124.242227 
" clip-path="url(#pef5382b724)" style="fill: none; stroke: #494949; stroke-linecap: round"/>
   </g>
   <g id="line2d_23">
    <g clip-path="url(#pef5382b724)">
     <use xlink:href="#m158ac80b42" x="184.552437" y="119.668984" style="fill-opacity: 0; stroke: #494949"/>
     <use xlink:href="#m158ac80b42" x="180.399481" y="119.668984" style="fill-opacity: 0; stroke: #494949"/>
     <use xlink:href="#m158ac80b42" x="176.94031" y="119.668984" style="fill-opacity: 0; stroke: #494949"/>
     <use xlink:href="#m158ac80b42" x="177.624054" y="119.668984" style="fill-opacity: 0; stroke: #494949"/>
     <use xlink:href="#m158ac80b42" x="190.657627" y="119.668984" style="fill-opacity: 0; stroke: #494949"/>
    </g>
   </g>
   <g id="patch_7">
    <path d="M 119.652465 141.010781 
L 119.652465 159.30375 
L 144.034331 159.30375 
L 144.034331 141.010781 
L 119.652465 141.010781 
z
" clip-path="url(#pef5382b724)" style="fill: #df9c20; stroke: #494949; stroke-linejoin: miter"/>
   </g>
   <g id="line2d_24">
    <path d="M 119.652465 150.157266 
L 86.460265 150.157266 
" clip-path="url(#pef5382b724)" style="fill: none; stroke: #494949"/>
   </g>
   <g id="line2d_25">
    <path d="M 144.034331 150.157266 
L 161.46259 150.157266 
" clip-path="url(#pef5382b724)" style="fill: none; stroke: #494949"/>
   </g>
   <g id="line2d_26">
    <path d="M 86.460265 145.584023 
L 86.460265 154.730508 
" clip-path="url(#pef5382b724)" style="fill: none; stroke: #494949; stroke-linecap: round"/>
   </g>
   <g id="line2d_27">
    <path d="M 161.46259 145.584023 
L 161.46259 154.730508 
" clip-path="url(#pef5382b724)" style="fill: none; stroke: #494949; stroke-linecap: round"/>
   </g>
   <g id="line2d_28">
    <g clip-path="url(#pef5382b724)">
     <use xlink:href="#m158ac80b42" x="182.360874" y="150.157266" style="fill-opacity: 0; stroke: #494949"/>
     <use xlink:href="#m158ac80b42" x="169.483986" y="150.157266" style="fill-opacity: 0; stroke: #494949"/>
    </g>
   </g>
   <g id="patch_8">
    <path d="M 50.245695 171.499062 
L 50.245695 189.792031 
L 65.031077 189.792031 
L 65.031077 171.499062 
L 50.245695 171.499062 
z
" clip-path="url(#pef5382b724)" style="fill: #df9c20; stroke: #494949; stroke-linejoin: miter"/>
   </g>
   <g id="line2d_29">
    <path d="M 50.245695 180.645547 
L 22.784534 180.645547 
" clip-path="url(#pef5382b724)" style="fill: none; stroke: #494949"/>
   </g>
   <g id="line2d_30">
    <path d="M 65.031077 180.645547 
L 74.393396 180.645547 
" clip-path="url(#pef5382b724)" style="fill: none; stroke: #494949"/>
   </g>
   <g id="line2d_31">
    <path d="M 22.784534 176.072305 
L 22.784534 185.218789 
" clip-path="url(#pef5382b724)" style="fill: none; stroke: #494949; stroke-linecap: round"/>
   </g>
   <g id="line2d_32">
    <path d="M 74.393396 176.072305 
L 74.393396 185.218789 
" clip-path="url(#pef5382b724)" style="fill: none; stroke: #494949; stroke-linecap: round"/>
   </g>
   <g id="line2d_33"/>
   <g id="line2d_34">
    <path d="M 146.247844 19.057656 
L 146.247844 37.350625 
" clip-path="url(#pef5382b724)" style="fill: none; stroke: #494949"/>
   </g>
   <g id="line2d_35">
    <path d="M 126.60492 49.545937 
L 126.60492 67.838906 
" clip-path="url(#pef5382b724)" style="fill: none; stroke: #494949"/>
   </g>
   <g id="line2d_36">
    <path d="M 121.317088 80.034219 
L 121.317088 98.327187 
" clip-path="url(#pef5382b724)" style="fill: none; stroke: #494949"/>
   </g>
   <g id="line2d_37">
    <path d="M 146.812186 110.5225 
L 146.812186 128.815469 
" clip-path="url(#pef5382b724)" style="fill: none; stroke: #494949"/>
   </g>
   <g id="line2d_38">
    <path d="M 129.606448 141.010781 
L 129.606448 159.30375 
" clip-path="url(#pef5382b724)" style="fill: none; stroke: #494949"/>
   </g>
   <g id="line2d_39">
    <path d="M 58.347588 171.499062 
L 58.347588 189.792031 
" clip-path="url(#pef5382b724)" style="fill: none; stroke: #494949"/>
   </g>
   <g id="patch_9">
    <path d="M 14.316801 195.889687 
L 14.316801 12.96 
" style="fill: none; stroke: #000000; stroke-width: 1.25; stroke-linejoin: miter; stroke-linecap: square"/>
   </g>
   <g id="patch_10">
    <path d="M 203.04 195.889687 
L 203.04 12.96 
" style="fill: none; stroke: #000000; stroke-width: 1.25; stroke-linejoin: miter; stroke-linecap: square"/>
   </g>
   <g id="patch_11">
    <path d="M 14.316801 195.889687 
L 203.04 195.889687 
" style="fill: none; stroke: #000000; stroke-width: 1.25; stroke-linejoin: miter; stroke-linecap: square"/>
   </g>
   <g id="patch_12">
    <path d="M 14.316801 12.96 
L 203.04 12.96 
" style="fill: none; stroke: #000000; stroke-width: 1.25; stroke-linejoin: miter; stroke-linecap: square"/>
   </g>
  </g>
 </g>
 <defs>
  <clipPath id="pef5382b724">
   <rect x="14.316801" y="12.96" width="188.723199" height="182.929688"/>
  </clipPath>
 </defs>
</svg>
